<svg width="30" height="21" viewBox="0 0 30 21" fill="none" xmlns="http://www.w3.org/2000/svg">
<path d="M12.0833 9.40958C13.7396 8.52561 14.6042 7.18804 14.6042 5.10606C14.6042 1.00028 11.8646 0 8.70312 0H0V20.6104H8.94792C12.3021 20.6104 15.4531 18.8133 15.4531 14.6261C15.4531 12.0382 14.3542 10.1249 12.0833 9.40958ZM4.05729 3.51842H7.86458C9.32812 3.51842 10.6458 3.97784 10.6458 5.87372C10.6458 7.6242 9.61979 8.32789 8.17187 8.32789H4.05729V3.51842ZM8.39583 17.1094H4.05729V11.4334H8.47917C10.2656 11.4334 11.3958 12.265 11.3958 14.3761C11.3958 16.458 10.0469 17.1094 8.39583 17.1094ZM27.0677 3.11133H19.5833V1.08169H27.0677V3.11133ZM30 13.3642C30 8.95015 27.6875 5.2689 23.4948 5.2689C19.4219 5.2689 16.6562 8.68845 16.6562 13.1664C16.6562 17.8131 19.276 21 23.4948 21C26.6875 21 28.7552 19.3949 29.75 15.9812H26.5104C26.1615 17.2548 24.724 17.9294 23.6094 17.9294C21.4583 17.9294 20.3281 16.522 20.3281 14.1318H29.9688C29.9844 13.8876 30 13.6259 30 13.3642ZM20.3333 11.5497C20.4531 9.58986 21.6198 8.36278 23.3802 8.36278C25.224 8.36278 26.151 9.57242 26.3073 11.5497H20.3333Z" fill="white"/>
</svg>
