<svg width="32" height="32" viewBox="0 0 32 32" fill="none" xmlns="http://www.w3.org/2000/svg">
<path d="M30.3364 16.1682C30.3364 23.993 23.993 30.3364 16.1682 30.3364C8.34331 30.3364 2 23.993 2 16.1682C2 8.34331 8.34331 2 16.1682 2C23.993 2 30.3364 8.34331 30.3364 16.1682Z" stroke="white" stroke-width="3.02551"/>
<path d="M11.2588 11.3773C12.1166 11.3773 12.8119 10.682 12.8119 9.82423C12.8119 8.96647 12.1166 8.27112 11.2588 8.27112C10.401 8.27112 9.70569 8.96647 9.70569 9.82423C9.70569 10.682 10.401 11.3773 11.2588 11.3773Z" fill="white"/>
<path d="M14.2795 12.5543V21.1708H16.955V16.9098C16.955 15.7854 17.1665 14.6965 18.5606 14.6965C19.9356 14.6965 19.9526 15.982 19.9526 16.9808V21.1716H22.6293V16.4463C22.6293 14.1251 22.1296 12.3413 19.4166 12.3413C18.1141 12.3413 17.241 13.0561 16.884 13.7326H16.8478V12.5543H14.2795ZM9.9198 12.5543H12.5994V21.1708H9.9198V12.5543Z" fill="white"/>
</svg>
